<?xml version="1.0" encoding="UTF-8"?>
<svg version="1.1" xmlns="http://www.w3.org/2000/svg" width="320" height="320">
<path d="M0 0 C0.8765625 0.42410156 1.753125 0.84820312 2.65625 1.28515625 C13.34024532 7.06159348 19.97749074 16.13282139 23.85449219 27.50683594 C25.80180553 34.2204065 26.51121361 40.39697436 26.4375 47.375 C26.43065186 48.37797119 26.42380371 49.38094238 26.41674805 50.41430664 C26.19116802 60.86280189 24.32705043 69.88901245 17.7578125 78.31640625 C16.76220084 80.02766345 16.76220084 80.02766345 17.640625 82.01171875 C19.10775343 84.15760487 20.61287949 85.6104944 22.625 87.25 C23.25664062 87.77078125 23.88828125 88.2915625 24.5390625 88.828125 C25.02117187 89.21484375 25.50328125 89.6015625 26 90 C25.26003377 94.29929745 23.3499822 96.17209429 20.03125 98.8515625 C17.11617392 100.49970167 15.13744755 100.43257599 11.91015625 99.7734375 C9.7863073 98.91347412 8.53332186 97.87989559 6.875 96.3125 C5.92625 95.549375 4.9775 94.78625 4 94 C1.17729836 94.43429735 1.17729836 94.43429735 -2 96 C-17.52494023 101.27546513 -34.52625684 100.60875606 -49.375 93.625 C-59.77650586 88.00121932 -66.54794967 79.32356114 -70.21875 68.10546875 C-74.56318809 50.83632735 -74.04710684 32.95987543 -65.5 17 C-64.68565482 15.65498544 -63.85474751 14.31970789 -63 13 C-62.443125 12.13375 -61.88625 11.2675 -61.3125 10.375 C-46.26581199 -5.07835526 -19.41604331 -9.61813256 0 0 Z M-37 17 C-38.03125 17.515625 -39.0625 18.03125 -40.125 18.5625 C-46.9886633 24.3816928 -50.1933351 32.17790289 -51 41 C-51.73937701 51.66047222 -51.26511236 63.52403558 -44 72 C-38.70632498 77.59775035 -33.12426431 80.51234343 -25.4140625 81.24609375 C-20.55154517 81.37021206 -16.54148637 80.91220479 -12 79 C-12.7425 78.2575 -13.485 77.515 -14.25 76.75 C-16.5 74.5 -18.75 72.25 -21 70 C-19.60186993 66.62118566 -18.17112209 64.84982122 -15 63 C-11.21434505 61.84784415 -9.55724491 61.76595714 -5.875 63.3125 C-4.92625 63.869375 -3.9775 64.42625 -3 65 C-1.67050065 65.67428014 -0.33789531 66.34253642 1 67 C5.7848597 53.72878535 6.77633739 40.81551217 0.8125 27.75 C-2.53378325 21.53547397 -6.65028297 17.68239035 -13.25 15.125 C-21.42675482 12.78480441 -29.40241032 13.15927586 -37 17 Z " fill="#8dda58" transform="translate(116,106)"/>
<path d="M0 0 C5.04448768 4.10597834 7.33027182 9.29442956 9.6875 15.1875 C9.91824219 14.52363281 10.14898437 13.85976562 10.38671875 13.17578125 C12.38587826 7.76303712 14.13071262 3.94684959 18.6875 0.1875 C19.30625 -0.369375 19.925 -0.92625 20.5625 -1.5 C27.46667168 -5.76434133 35.88399563 -5.87781903 43.62890625 -4.16015625 C50.01160955 -2.13679589 54.17416455 0.42754188 57.6875 6.1875 C58.86634585 8.50019758 59.78959958 10.74321553 60.6875 13.1875 C58.71123264 15.16376736 55.1240574 14.50684627 52.4375 14.5625 C51.76847656 14.59988281 51.09945312 14.63726562 50.41015625 14.67578125 C46.42569807 14.74623336 44.94317989 14.41980344 41.953125 11.703125 C41.20546875 10.87296875 40.4578125 10.0428125 39.6875 9.1875 C36.90022061 8.2900805 34.5156746 8.46188753 31.6875 9.1875 C28.46795355 11.72203657 26.98317565 13.30047305 25.6875 17.1875 C24.84881654 27.23820952 24.84881654 27.23820952 28.6875 36.1875 C30.99334066 38.22981601 32.54948798 39.13309305 35.6484375 39.28125 C40.11828046 38.99125387 40.11828046 38.99125387 43.44921875 36.14453125 C46.59558076 33.39352362 49.47606451 33.74279807 53.4375 33.9375 C54.13488281 33.95554688 54.83226562 33.97359375 55.55078125 33.9921875 C57.26361539 34.03911446 58.97573824 34.11085395 60.6875 34.1875 C58.86489949 41.15626666 56.43831267 45.73368901 50.125 49.5 C42.43790046 53.27366705 32.93186658 53.65072614 24.69140625 51.3515625 C18.48670003 48.53725131 15.11506335 45.03943743 11.6875 39.1875 C10.6975 35.5575 9.7075 31.9275 8.6875 28.1875 C-3.1925 28.1875 -15.0725 28.1875 -27.3125 28.1875 C-24.46422705 36.67419983 -24.46422705 36.67419983 -21 38.8125 C-17.45377157 39.30732257 -14.79319789 39.05767447 -11.3125 38.1875 C-10.57644531 37.51460937 -9.84039062 36.84171875 -9.08203125 36.1484375 C-5.53271361 33.63538044 -2.67229413 33.72988345 1.5 33.9375 C2.19287109 33.95554688 2.88574219 33.97359375 3.59960938 33.9921875 C5.29617664 34.03898936 6.99202476 34.11072376 8.6875 34.1875 C6.707106 41.58097095 3.02497852 45.88165335 -3.3125 50.1875 C-11.16435315 53.51858921 -21.40510457 53.78313883 -29.375 50.625 C-36.13007907 47.01211402 -39.84549842 41.32882037 -42.3125 34.1875 C-44.57571449 24.72314849 -43.99140594 14.35097235 -39 5.875 C-29.75450824 -7.63145753 -13.19940867 -7.22231795 0 0 Z M-26.3125 13.1875 C-26.6425 14.8375 -26.9725 16.4875 -27.3125 18.1875 C-20.7125 18.1875 -14.1125 18.1875 -7.3125 18.1875 C-7.84810807 12.5828504 -7.84810807 12.5828504 -9.8125 9.8125 C-15.96149617 5.81565249 -22.13003337 7.3059063 -26.3125 13.1875 Z " fill="#8dda58" transform="translate(214.3125,149.8125)"/>
<path d="M0 0 C-1.89066967 7.4546404 -5.31255926 12.95928139 -10 19 C-10.51304687 19.6909375 -11.02609375 20.381875 -11.5546875 21.09375 C-24.46823451 37.28386864 -46.10849286 44.7079116 -66 47 C-97.97140649 49.71606419 -134.7659526 41.85027467 -164 29 C-164.33 28.34 -164.66 27.68 -165 27 C-164.28735352 25.21240234 -164.28735352 25.21240234 -163.12890625 23.0859375 C-162.71962891 22.32539063 -162.31035156 21.56484375 -161.88867188 20.78125 C-161.2322168 19.59015625 -161.2322168 19.59015625 -160.5625 18.375 C-159.9118457 17.17230469 -159.9118457 17.17230469 -159.24804688 15.9453125 C-158.17243012 13.95955849 -157.08952787 11.9781454 -156 10 C-150.79818812 10.63276385 -146.3938662 12.28560309 -141.5625 14.1875 C-130.59170391 18.34530784 -119.44209301 21.43115982 -108 24 C-107.19578613 24.18079102 -106.39157227 24.36158203 -105.56298828 24.54785156 C-94.20660557 26.96369445 -82.81937318 27.29990164 -71.25 27.375 C-70.56238586 27.3830365 -69.87477173 27.391073 -69.1663208 27.39935303 C-46.54558848 27.60008677 -25.08274299 22.25907328 -8.26171875 6.421875 C-6.71838584 4.85638898 -5.19661703 3.26905559 -3.70703125 1.65234375 C-2 0 -2 0 0 0 Z " fill="#8dda58" transform="translate(301,218)"/>
<path d="M0 0 C-1.3922459 4.62675657 -3.29520984 8.64686231 -5.625 12.875 C-6.25664062 14.02742188 -6.88828125 15.17984375 -7.5390625 16.3671875 C-8.02117187 17.23601562 -8.50328125 18.10484375 -9 19 C-9.94617188 18.63648438 -10.89234375 18.27296875 -11.8671875 17.8984375 C-48.80895448 3.80441721 -96.40485716 -11.33375451 -134.92578125 5.69140625 C-143.75912047 9.79746428 -151.87687226 14.58342342 -158.63671875 21.73046875 C-160 23 -160 23 -162 23 C-162.66 24.32 -163.32 25.64 -164 27 C-165.28840256 23.13479233 -164.49687011 22.17621757 -162.75 18.5625 C-153.60778518 1.04168924 -136.90202566 -10.28417844 -118.4375 -16.3125 C-82.34603385 -26.43200856 -32.95576183 -17.58072141 0 0 Z " fill="#8dda58" transform="translate(181,74)"/>
<path d="M0 0 C0.5784668 0.44529053 1.15693359 0.89058105 1.75292969 1.34936523 C4.39581717 3.45687548 5.65714844 4.53394532 6.75 7.8125 C5.31640625 10.29296875 5.31640625 10.29296875 3.3125 13 C2.65378906 13.90105469 1.99507812 14.80210938 1.31640625 15.73046875 C0.54103516 16.76107422 0.54103516 16.76107422 -0.25 17.8125 C-3.33742229 17.21002443 -5.30701572 16.2594355 -7.8046875 14.36328125 C-8.49022705 13.8520874 -9.1757666 13.34089355 -9.88208008 12.81420898 C-10.62224365 12.25677002 -11.36240723 11.69933105 -12.125 11.125 C-37.2232665 -7.35586605 -65.14201128 -25.45311107 -95.19238281 -34.5546875 C-97.44774681 -35.2483163 -99.68782611 -35.98269799 -101.9296875 -36.71875 C-137.82327875 -48.29481397 -177.91508735 -47.71813901 -212.30175781 -31.33496094 C-213.92791738 -30.56777742 -215.58677283 -29.87061116 -217.25 -29.1875 C-217.91 -29.5175 -218.57 -29.8475 -219.25 -30.1875 C-153.65811733 -84.6148069 -58.26592223 -45.15685679 0 0 Z " fill="#8dda58" transform="translate(275.25,69.1875)"/>
<path d="M0 0 C6.25593517 3.89713994 12.40678042 7.93131769 18.52294922 12.04321289 C27.86192329 18.31629458 37.2360241 24.4103565 47 30 C47.75071777 30.4340918 48.50143555 30.86818359 49.27490234 31.31542969 C92.22693812 56.03988452 140.2144679 68.08082971 189 55.42578125 C199.35711722 52.57200567 209.26490128 48.51986726 219 44 C217.87952696 47.36141911 217.42868154 47.66104067 214.5625 49.453125 C213.84118896 49.90413574 213.11987793 50.35514648 212.37670898 50.81982422 C211.59239502 51.29178223 210.80808105 51.76374023 210 52.25 C208.78582397 52.98307373 208.78582397 52.98307373 207.54711914 53.73095703 C196.99764405 59.9464219 185.93952008 64.2555707 174.25 67.8125 C173.61376709 68.00763184 172.97753418 68.20276367 172.32202148 68.40380859 C160.95843719 71.65875512 149.5174272 72.36414343 137.75 72.3125 C136.7263736 72.30876877 136.7263736 72.30876877 135.68206787 72.30496216 C125.11332309 72.24551432 115.25252677 71.65051118 105 69 C104.113125 68.7848877 103.22625 68.56977539 102.3125 68.34814453 C61.20633286 58.28341976 25.52299212 38.25187798 -8 13 C-6.71455342 9.43694177 -5.20155344 6.67155767 -2.875 3.6875 C-2.33617187 2.99011719 -1.79734375 2.29273438 -1.2421875 1.57421875 C-0.62730469 0.79498047 -0.62730469 0.79498047 0 0 Z " fill="#8dda58" transform="translate(43,234)"/>
<path d="M0 0 C4.31203347 1.31355405 8.29797513 3.01128464 12.3671875 4.91894531 C54.83835823 24.78066293 103.15778083 36.53254649 148.66870117 20.03417969 C160.27244723 15.61228032 170.24923233 8.60559878 180 1 C171.96444805 18.07091911 149.17119393 31.32401385 131.90234375 37.546875 C90.70214594 51.39654798 41.72576216 39.49330831 2.9375 23.1875 C2.04450195 22.81463867 1.15150391 22.44177734 0.23144531 22.05761719 C-0.5784082 21.7021582 -1.38826172 21.34669922 -2.22265625 20.98046875 C-2.93172119 20.67004639 -3.64078613 20.35962402 -4.37133789 20.03979492 C-6 19 -6 19 -7 16 C-6.1270975 13.3812925 -5.19681868 10.90925572 -4.125 8.375 C-3.70154297 7.33472656 -3.70154297 7.33472656 -3.26953125 6.2734375 C-1.16380295 1.16380295 -1.16380295 1.16380295 0 0 Z " fill="#8dda58" transform="translate(109,243)"/>
<path d="M0 0 C-0.58652352 4.48993869 -1.7643538 8.22543184 -3.5625 12.375 C-4.01753906 13.43460938 -4.47257813 14.49421875 -4.94140625 15.5859375 C-5.29074219 16.38257813 -5.64007813 17.17921875 -6 18 C-11.14251147 16.45154171 -15.76325505 14.23694513 -20.5625 11.875 C-60.40993323 -7.3041773 -108.64241589 -20.26854257 -152.05859375 -5.6796875 C-163.90923859 -1.39398303 -175.25751244 5.01237045 -185 13 C-185 10 -185 10 -183.48828125 8.08984375 C-134.25112896 -40.61692629 -56.7353697 -33.68333637 0 0 Z " fill="#8dda58" transform="translate(215,60)"/>
<path d="M0 0 C1.94245847 -0.04895536 3.88526885 -0.08410103 5.828125 -0.11328125 C6.9099707 -0.13430908 7.99181641 -0.15533691 9.10644531 -0.17700195 C12 0 12 0 14.75 1.8125 C16.59895276 6.52732955 16.31530254 10.99895137 16 16 C18.64 16 21.28 16 24 16 C24.32899743 19.61897173 24.44576634 21.39503139 22.25 24.375 C20 26 20 26 16 26 C16.33 36.56 16.66 47.12 17 58 C20.465 58.495 20.465 58.495 24 59 C24 62.63 24 66.26 24 70 C21.10315842 70.10829314 18.21038981 70.18743954 15.3125 70.25 C14.49587891 70.28351563 13.67925781 70.31703125 12.83789062 70.3515625 C8.73925176 70.41793722 6.56291539 70.34080776 2.98046875 68.171875 C-0.28367997 64.59225628 -0.12281671 61.53117158 -0.11352539 56.8762207 C-0.11344986 55.61513992 -0.11337433 54.35405914 -0.11329651 53.05476379 C-0.10818989 51.67843588 -0.10297389 50.30210837 -0.09765625 48.92578125 C-0.09579086 47.51759389 -0.09436753 46.10940589 -0.09336853 44.70121765 C-0.08955288 40.9973267 -0.07973072 37.29347505 -0.06866455 33.58959961 C-0.05842997 29.80908744 -0.05386652 26.02856891 -0.04882812 22.24804688 C-0.0381076 14.83201335 -0.0210426 7.41601218 0 0 Z " fill="#8dda58" transform="translate(148,131)"/>
<path d="M0 0 C6.00084634 1.91105791 11.79848885 4.10416996 17.61499023 6.515625 C29.85865162 11.58052098 42.12012042 15.86961457 55 19 C55.73452393 19.19360107 56.46904785 19.38720215 57.22583008 19.58666992 C65.33238419 21.50778767 73.53417787 21.3486883 81.8125 21.3125 C82.97128159 21.3117598 82.97128159 21.3117598 84.1534729 21.31100464 C95.93388487 21.28797785 107.33414573 20.54013238 118.93505859 18.36376953 C122.27502455 17.77538584 125.63200181 17.39286955 129 17 C125.25504131 19.49663912 121.5209677 20.60046866 117.25 21.9375 C116.40324707 22.20328857 115.55649414 22.46907715 114.68408203 22.74291992 C75.00702432 34.9010561 33.50194842 27.95293476 -3 9 C-2.01 6.03 -1.02 3.06 0 0 Z " fill="#8dda58" transform="translate(88,287)"/>
<path d="M0 0 C-0.55728913 3.34373475 -1.35173889 6.03312999 -3 9 C-7.8010409 7.53211418 -12.34010207 5.60445375 -16.9440918 3.62329102 C-29.41584878 -1.7263026 -41.96155684 -6.24592283 -55 -10 C-56.1859375 -10.34933594 -57.371875 -10.69867188 -58.59375 -11.05859375 C-81.58619814 -17.12604534 -106.9059274 -13.55422024 -130 -10 C-102.3916339 -37.6083661 -27.72724159 -17.68346237 0 0 Z " fill="#8dda58" transform="translate(233,25)"/>
<path d="M0 0 C4.09780688 2.94552375 6.79617726 6.19617334 9.4375 10.4375 C9.82510498 11.05512207 10.21270996 11.67274414 10.61206055 12.30908203 C23.83261811 33.80311442 27.81808232 57.84412418 22.4375 82.625 C19.72439951 93.79621669 14.78466583 104.11786255 9 114 C7.77277866 110.31833599 8.38417923 109.42811345 9.75 105.875 C17.27125843 83.83353431 17.99523062 57.52849701 12 35 C11.79068848 34.19916992 11.58137695 33.39833984 11.36572266 32.57324219 C8.73935042 22.74804499 5.66677546 13.44295208 1.1015625 4.3359375 C0 2 0 2 0 0 Z " fill="#8dda58" transform="translate(296,99)"/>
<path d="M0 0 C1.45296279 4.35888837 -0.14475874 7.94768349 -1.35351562 12.22851562 C-4.4889008 23.87584901 -5.36738273 35.60176179 -5.3125 47.625 C-5.30686035 48.93460693 -5.3012207 50.24421387 -5.29541016 51.59350586 C-5.0303687 72.9450879 -0.62033574 93.33352742 7.43359375 113.13671875 C8 115 8 115 7 117 C-11.03463712 94.06219591 -15.81266108 65.67421337 -12.68359375 37.11181641 C-11.86319824 31.95348009 -10.57919639 26.97453164 -9 22 C-8.79681152 21.3498291 -8.59362305 20.6996582 -8.38427734 20.02978516 C-6.15480456 13.0545954 -3.47811452 6.44095282 0 0 Z " fill="#8dda58" transform="translate(13,104)"/>
<path d="M0 0 C17.56661351 -0.33286266 34.68928358 -0.43548863 52 3 C53.09924805 3.20882813 53.09924805 3.20882813 54.22070312 3.421875 C68.93570773 6.28275798 83.17060413 11.19384252 96.4375 18.1875 C97.04609863 18.5081543 97.65469727 18.82880859 98.28173828 19.15917969 C101.70489635 21.04869274 104.38126271 23.09815598 107 26 C105.35 27.65 103.7 29.3 102 31 C100.81470703 30.1646875 100.81470703 30.1646875 99.60546875 29.3125 C70.32801599 9.26472329 34.50978961 4.40895612 0 1 C0 0.67 0 0.34 0 0 Z " fill="#8dda58" transform="translate(147,0)"/>
<path d="M0 0 C4.03575616 1.46687078 7.46955211 3.44578557 11.125 5.6875 C38.78999565 21.85339024 72.66880008 25.32615262 104 28 C104 28.33 104 28.66 104 29 C65.15759925 29.64215923 65.15759925 29.64215923 48 26 C47.15453613 25.82307617 46.30907227 25.64615234 45.43798828 25.46386719 C30.97886094 22.34528468 17.80328617 17.6188768 4.625 10.875 C3.9755542 10.55039795 3.3261084 10.2257959 2.65698242 9.89135742 C-1.74194771 7.54823561 -1.74194771 7.54823561 -3.00390625 4.8671875 C-3 3 -3 3 -1.5625 1.25 C-1.046875 0.8375 -0.53125 0.425 0 0 Z " fill="#8dda58" transform="translate(68,291)"/>
<path d="M0 0 C3.46895276 1.96071243 4.71249004 3.15543949 6 6.9375 C6 10.60292141 5.23178648 12.13056023 3 15 C-0.75047482 17.50031654 -2.55856266 17.53603554 -7 17 C-10.69186542 14.40783917 -11.82883761 12.95850936 -12.625 8.5 C-11.33615024 1.28244135 -7.03773356 -1.13106432 0 0 Z " fill="#8dda58" transform="translate(291,80)"/>
<path d="M0 0 C3.74785043 2.08213913 4.79482295 3.2947039 6 7.4375 C6 11.37108373 5.41868244 12.95425175 3 16 C-0.20270544 17.60135272 -3.52463384 17.48861584 -7 17 C-10.06458538 14.95694308 -10.82153128 13.55920198 -11.9375 10.0625 C-12.0128328 6.37119268 -11.24574926 4.8873919 -9 2 C-5.48746854 -0.34168764 -4.13530644 -0.49623677 0 0 Z " fill="#8dda58" transform="translate(97,239)"/>
<path d="M0 0 C2.9375 1.5 2.9375 1.5 5 4 C5.79190864 8.98902441 5.80380719 10.83082591 2.9375 15 C-0.77807226 17.52975133 -2.5882483 17.7878128 -7 17 C-10.69186542 14.40783917 -11.82883761 12.95850936 -12.625 8.5 C-11.33615024 1.28244135 -7.03773356 -1.13106432 0 0 Z " fill="#8dda58" transform="translate(33,225)"/>
<path d="M0 0 C2.9375 2.0625 2.9375 2.0625 5 5 C5.62601538 8.96476406 5.65946039 10.99762021 3.4375 14.375 C0.19692624 16.53538251 -2.11684403 16.93187446 -6 17 C-8.94755732 15.65437601 -10.54277272 14.91445456 -12 12 C-12.28394278 9.06592458 -12.48994001 6.84953616 -12 4 C-8.52445854 -0.21277753 -5.30670762 -0.85286372 0 0 Z " fill="#8dda58" transform="translate(227,65)"/>
<path d="M0 0 C2.64764845 1.67684402 2.95477045 2.85138861 3.875 5.875 C4.02602779 9.65069465 3.35110647 11.08138508 1 14 C-1.54229606 15.92863839 -2.78345018 16.00902291 -6 15.875 C-9.53800495 14.84308189 -10.91772554 14.04332421 -13 11 C-13.46918683 7.24650538 -13.53136381 4.96151547 -11.6875 1.625 C-8.07389756 -1.85476532 -4.57863555 -0.98113619 0 0 Z " fill="#8dda58" transform="translate(192,82)"/>
<path d="M0 0 C2.93350708 0.09600569 4.03741536 0.32244921 6.625 1.875 C8.74653384 5.41088973 8.916013 8.35401723 8.125 12.375 C6.625 14.875 6.625 14.875 4.125 16.375 C1.34110348 16.92265177 -1.09291747 16.94055682 -3.875 16.375 C-6.65625232 14.44951763 -7.60677839 13.07237619 -8.8125 9.9375 C-8.8943592 6.58127293 -7.82963467 5.05357344 -5.875 2.375 C-3.875 0.375 -3.875 0.375 0 0 Z " fill="#8dda58" transform="translate(129.875,222.625)"/>
<path d="M0 0 C0.625 2.375 0.625 2.375 1 5 C-1 7 -1 7 -3.5625 7.1875 C-6 7 -6 7 -7 6 C-7.04080783 4.00041636 -7.04254356 1.99954746 -7 0 C-4.3333581 -1.33332095 -2.83319697 -0.67102033 0 0 Z " fill="#8dda58" transform="translate(85,285)"/>
<path d="M0 0 C2.00720923 0.28674418 4.0085944 0.61866701 6 1 C6.04254356 2.99954746 6.04080783 5.00041636 6 7 C5 8 5 8 2.5625 8.1875 C0 8 0 8 -2 6 C-1.44444444 1.44444444 -1.44444444 1.44444444 0 0 Z " fill="#8dda58" transform="translate(234,29)"/>
<path d="M0 0 C2.625 0.375 2.625 0.375 5 1 C5.625 3.375 5.625 3.375 6 6 C5.34 6.66 4.68 7.32 4 8 C1.375 7.625 1.375 7.625 -1 7 C-1.625 4.625 -1.625 4.625 -2 2 C-1.34 1.34 -0.68 0.68 0 0 Z " fill="#8dda58" transform="translate(60,286)"/>
<path d="M0 0 C2.625 0.9375 2.625 0.9375 5 2 C4.67 3.65 4.34 5.3 4 7 C1.625 7.625 1.625 7.625 -1 8 C-1.66 7.34 -2.32 6.68 -3 6 C-2.75 3.4375 -2.75 3.4375 -2 1 C-1.34 0.67 -0.68 0.34 0 0 Z " fill="#8dda58" transform="translate(255,27)"/>
<path d="" fill="#8dda58" transform="translate(0,0)"/>
<path d="" fill="#8dda58" transform="translate(0,0)"/>
</svg>
